<svg width="106" height="101" viewBox="0 0 106 101" fill="none" xmlns="http://www.w3.org/2000/svg">
<rect x="1" y="21.707" width="105" height="73.7019" rx="20" fill="url(#paint0_linear_484_71)"/>
<rect x="1" y="13.6294" width="40.3846" height="73.7019" rx="20" fill="url(#paint1_linear_484_71)"/>
<ellipse cx="56.2764" cy="25.4928" rx="22.4639" ry="18.9303" fill="url(#paint2_linear_484_71)"/>
<circle cx="56.7817" cy="6.8149" r="6.8149" fill="#F4473D"/>
<rect x="1" y="27.2598" width="105" height="73.7019" rx="20" fill="url(#paint3_linear_484_71)"/>
<rect x="13" y="36" width="81" height="57" rx="10" fill="url(#paint4_radial_484_71)"/>
<path d="M94 44.5V86.5L86 93H20.5L13 86.5V44.5" stroke="#8B4418" stroke-width="3"/>
<rect y="55" width="106" height="20" fill="white"/>
<path d="M33.5 71H12.5C13.3 59.7998 19 58.5 22 58.5C32 58.4998 33.5 66.3333 33.5 71Z" fill="#EF3333" stroke="#8B4418"/>
<path d="M64 71.5H43C43.8 60.2998 49.5 59 52.5 59C62.5 58.9998 64 66.8333 64 71.5Z" fill="#EF3333" stroke="#8B4418"/>
<path d="M94 71.5H73C73.8 60.2998 79.5 59 82.5 59C92.5 58.9998 94 66.8333 94 71.5Z" fill="#EF3333" stroke="#8B4418"/>
<g filter="url(#filter0_f_484_71)">
<path d="M28 68.882C28 68.1246 27.9553 67.409 27.5222 66.7235C27.0492 65.9746 26.0466 65.3417 25.2356 64.8681C24.2677 64.3029 23.1234 63.8826 21.9337 64.1679C20.43 64.5286 19.4128 65.4628 18.939 66.6874C18.658 67.4135 18.2763 68.1174 18.1114 68.8675C18.0626 69.0893 18.4463 68.8168 18.5892 68.7737C19.8699 68.3871 21.2266 68.1896 22.5822 68.1312C23.8682 68.0758 25.1655 68.1176 26.4386 68.2828C26.4413 68.2831 27.1262 68.4089 27.1212 68.3333C27.1104 68.1688 26.753 67.9629 26.6263 67.8785C25.7858 67.3186 24.8255 66.8689 23.8022 66.6007C23.5817 66.5429 19.2095 65.8314 19.8519 66.8173C20.3045 67.512 21.9368 67.3789 22.6419 67.1927C22.8338 67.142 23.9108 66.7926 23.5292 66.413C23.0344 65.921 21.5455 66.1379 20.9696 66.2253C19.8754 66.3914 18.8016 66.7441 17.9109 67.3118C17.5352 67.5512 17.0515 67.9186 17.0022 68.355C16.9648 68.6862 17.4163 68.7221 17.4459 68.9469C17.4605 69.0583 17.326 68.9699 17.3094 68.9036C17.2088 68.5039 17.176 68.1063 17.1728 67.698C17.163 66.4257 17.1936 65.1976 18.41 64.2834C19.958 63.12 22.3712 62.62 24.2971 63.3233C25.6892 63.8315 27.3718 64.7942 27.7355 66.1387C27.8364 66.5116 27.7696 66.9403 27.7696 67.3226" stroke="white" stroke-width="3" stroke-linecap="round"/>
</g>
<g filter="url(#filter1_f_484_71)">
<path d="M59 68.882C59 68.1246 58.9553 67.409 58.5222 66.7235C58.0492 65.9746 57.0466 65.3417 56.2356 64.8681C55.2677 64.3029 54.1234 63.8826 52.9337 64.1679C51.43 64.5286 50.4128 65.4628 49.939 66.6874C49.658 67.4135 49.2763 68.1174 49.1114 68.8675C49.0626 69.0893 49.4463 68.8168 49.5892 68.7737C50.8699 68.3871 52.2266 68.1896 53.5822 68.1312C54.8682 68.0758 56.1655 68.1176 57.4386 68.2828C57.4413 68.2831 58.1262 68.4089 58.1212 68.3333C58.1104 68.1688 57.753 67.9629 57.6263 67.8785C56.7858 67.3186 55.8255 66.8689 54.8022 66.6007C54.5817 66.5429 50.2095 65.8314 50.8519 66.8173C51.3045 67.512 52.9368 67.3789 53.6419 67.1927C53.8338 67.142 54.9108 66.7926 54.5292 66.413C54.0344 65.921 52.5455 66.1379 51.9696 66.2253C50.8754 66.3914 49.8016 66.7441 48.9109 67.3118C48.5352 67.5512 48.0515 67.9186 48.0022 68.355C47.9648 68.6862 48.4163 68.7221 48.4459 68.9469C48.4605 69.0583 48.326 68.9699 48.3094 68.9036C48.2088 68.5039 48.176 68.1063 48.1728 67.698C48.163 66.4257 48.1936 65.1976 49.41 64.2834C50.958 63.12 53.3712 62.62 55.2971 63.3233C56.6892 63.8315 58.3718 64.7942 58.7355 66.1387C58.8364 66.5116 58.7696 66.9403 58.7696 67.3226" stroke="white" stroke-width="3" stroke-linecap="round"/>
</g>
<g filter="url(#filter2_f_484_71)">
<path d="M89 68.882C89 68.1246 88.9553 67.409 88.5222 66.7235C88.0492 65.9746 87.0466 65.3417 86.2356 64.8681C85.2677 64.3029 84.1234 63.8826 82.9337 64.1679C81.43 64.5286 80.4128 65.4628 79.939 66.6874C79.658 67.4135 79.2763 68.1174 79.1114 68.8675C79.0626 69.0893 79.4463 68.8168 79.5892 68.7737C80.8699 68.3871 82.2266 68.1896 83.5822 68.1312C84.8682 68.0758 86.1655 68.1176 87.4386 68.2828C87.4413 68.2831 88.1262 68.4089 88.1212 68.3333C88.1104 68.1688 87.753 67.9629 87.6263 67.8785C86.7858 67.3186 85.8255 66.8689 84.8022 66.6007C84.5817 66.5429 80.2095 65.8314 80.8519 66.8173C81.3045 67.512 82.9368 67.3789 83.6419 67.1927C83.8338 67.142 84.9108 66.7926 84.5292 66.413C84.0344 65.921 82.5455 66.1379 81.9696 66.2253C80.8754 66.3914 79.8016 66.7441 78.9109 67.3118C78.5352 67.5512 78.0515 67.9186 78.0022 68.355C77.9648 68.6862 78.4163 68.7221 78.4459 68.9469C78.4605 69.0583 78.326 68.9699 78.3094 68.9036C78.2088 68.5039 78.176 68.1063 78.1728 67.698C78.163 66.4257 78.1936 65.1976 79.41 64.2834C80.958 63.12 83.3712 62.62 85.2971 63.3233C86.6892 63.8315 88.3718 64.7942 88.7355 66.1387C88.8364 66.5116 88.7696 66.9403 88.7696 67.3226" stroke="white" stroke-width="3" stroke-linecap="round"/>
</g>
<defs>
<filter id="filter0_f_484_71" x="14.5" y="60.4995" width="16" height="11.0015" filterUnits="userSpaceOnUse" color-interpolation-filters="sRGB">
<feFlood flood-opacity="0" result="BackgroundImageFix"/>
<feBlend mode="normal" in="SourceGraphic" in2="BackgroundImageFix" result="shape"/>
<feGaussianBlur stdDeviation="0.5" result="effect1_foregroundBlur_484_71"/>
</filter>
<filter id="filter1_f_484_71" x="45.5" y="60.4995" width="16" height="11.0015" filterUnits="userSpaceOnUse" color-interpolation-filters="sRGB">
<feFlood flood-opacity="0" result="BackgroundImageFix"/>
<feBlend mode="normal" in="SourceGraphic" in2="BackgroundImageFix" result="shape"/>
<feGaussianBlur stdDeviation="0.5" result="effect1_foregroundBlur_484_71"/>
</filter>
<filter id="filter2_f_484_71" x="75.5" y="60.4995" width="16" height="11.0015" filterUnits="userSpaceOnUse" color-interpolation-filters="sRGB">
<feFlood flood-opacity="0" result="BackgroundImageFix"/>
<feBlend mode="normal" in="SourceGraphic" in2="BackgroundImageFix" result="shape"/>
<feGaussianBlur stdDeviation="0.5" result="effect1_foregroundBlur_484_71"/>
</filter>
<linearGradient id="paint0_linear_484_71" x1="53.5" y1="21.707" x2="53.5" y2="41.2699" gradientUnits="userSpaceOnUse">
<stop stop-color="#838383"/>
<stop offset="0.0001" stop-color="#B0B0B0"/>
<stop offset="1" stop-color="white"/>
</linearGradient>
<linearGradient id="paint1_linear_484_71" x1="21.1923" y1="13.6294" x2="21.1923" y2="33.1923" gradientUnits="userSpaceOnUse">
<stop stop-color="#838383"/>
<stop offset="0.0001" stop-color="#B0B0B0"/>
<stop offset="1" stop-color="white"/>
</linearGradient>
<linearGradient id="paint2_linear_484_71" x1="56.2764" y1="6.5625" x2="56.2764" y2="44.4231" gradientUnits="userSpaceOnUse">
<stop stop-color="#FFFEEC"/>
<stop offset="1" stop-color="white"/>
</linearGradient>
<linearGradient id="paint3_linear_484_71" x1="53.5" y1="27.2598" x2="53.5" y2="100.962" gradientUnits="userSpaceOnUse">
<stop stop-color="#FFF4DB"/>
</linearGradient>
<radialGradient id="paint4_radial_484_71" cx="0" cy="0" r="1" gradientUnits="userSpaceOnUse" gradientTransform="translate(53.5 64.5) rotate(90) scale(28.5 40.5)">
<stop offset="0.75" stop-color="#FEFBC4"/>
<stop offset="1" stop-color="#FFCC81"/>
</radialGradient>
</defs>
</svg>
