
<svg width="105" height="101" viewBox="0 0 105 101" fill="none" xmlns="http://www.w3.org/2000/svg">
<path d="M15 41H90" stroke="white"/>
<path d="M15.5 47H90" stroke="white"/>
<rect y="21.707" width="105" height="73.7019" rx="20" fill="url(#paint0_linear_484_73)"/>
<rect y="13.6294" width="40.3846" height="73.7019" rx="20" fill="url(#paint1_linear_484_73)"/>
<path d="M82 28L97 7H105" stroke="white" stroke-width="4"/>
<ellipse cx="55.2764" cy="25.4928" rx="22.4639" ry="18.9303" fill="url(#paint2_linear_484_73)"/>
<circle cx="55.7817" cy="6.8149" r="6.8149" fill="#F4473D"/>
<rect y="27.2598" width="105" height="73.7019" rx="20" fill="url(#paint3_linear_484_73)"/>
<path d="M40.9922 81.941C40.9922 69.4243 45.8592 57.92 55.7853 50.3492C59.3732 47.6127 63.1284 45.6749 67.0837 43.6973" stroke="white" stroke-width="2" stroke-linecap="round"/>
<path d="M35.5317 72.3101C35.5317 70.487 35.0706 67.8032 32.8891 67.3184C31.5241 67.0151 31.172 67.6234 31.3622 68.9333C31.6555 70.9537 33.1614 73.5178 35.2528 74.1453C36.2703 74.4505 36.7581 74.5851 37.0586 73.4259C37.3448 72.322 34.8621 70.9054 34.2104 70.1813C33.7311 69.6487 33.2971 69.0179 33.0359 68.3461C33.0239 68.3153 32.6373 67.3814 32.6248 67.4065C32.2016 68.2527 33.2407 71.6652 33.7993 72.3835C33.8529 72.4523 32.4903 69.5665 33.6819 70.4602" stroke="white" stroke-width="2" stroke-linecap="round"/>
<path d="M39.2316 63.3253C37.9064 63.1781 36.515 59.6905 36.0751 58.7006C35.0282 56.3452 33.9046 54.0021 33.4764 51.4333C33.1994 49.7711 33.4777 48.3391 35.1208 47.6161C36.0379 47.2126 37.476 46.6903 38.4388 47.1463C40.5391 48.1412 40.0244 51.9354 40.0244 53.753C40.0244 56.0188 40.0244 58.2847 40.0244 60.5505C40.0244 60.8158 40.0244 61.9799 40.0244 61.7397C40.0244 58.462 40.2252 55.1216 39.8922 51.8591C39.798 50.935 39.7601 50.0267 39.7601 49.099C39.7601 48.9479 39.7601 50.5362 39.7601 50.8461C39.7601 51.8493 39.7601 52.8525 39.7601 53.8558C39.7601 54.9311 39.7021 51.6959 39.4958 50.6405C39.3613 49.9521 39.0109 49.2239 38.9673 48.5264C38.9231 47.8181 38.9822 49.9462 38.9526 50.6552C38.9124 51.6218 39.0693 55.8903 38.4388 52.9602C38.2113 51.9032 37.0325 46.4388 36.8679 50.3909C36.8249 51.4222 37.5745 56.5303 37.367 53.0042C37.3195 52.1966 37.2598 51.2035 36.9853 50.435C36.8735 50.1219 36.8532 52.1442 36.8532 52.4317C36.8532 55.6398 37.2147 52.496 36.9706 51.0663C36.941 50.8925 36.6099 49.0133 36.2072 49.1283C35.7664 49.2543 36.0854 52.3403 36.1191 52.6959C36.1499 53.0207 36.4168 55.2413 37.2643 54.3696C38.2737 53.3313 38.3105 50.7595 37.8662 49.51C37.6325 48.8527 36.9209 47.682 36.0604 47.7776C34.7092 47.9278 35.4175 50.9081 35.5906 51.6389C35.8732 52.8323 36.3889 54.1694 37.646 54.6045C38.4753 54.8916 38.8563 54.333 38.9526 53.5621C39.0564 52.7317 38.9673 56.0727 38.9673 56.0727C38.9673 56.0727 38.7632 54.6331 38.4535 53.9879C38.1293 53.3126 37.9239 53.0887 37.9103 54.0466C37.8907 55.4119 37.818 56.828 37.969 58.1868C38.0701 59.0969 38.2594 59.7804 38.1598 58.4364C38.1167 57.8538 37.9634 57.0654 37.5285 56.6306C37.3907 56.4927 37.5522 58.7072 37.5873 58.9796C37.6507 59.4728 38.0644 60.8971 37.8515 60.4477C37.2845 59.2508 36.905 57.9648 36.3393 56.7627C35.1123 54.1552 36.4721 56.9429 37.2496 57.8932C38.0495 58.8709 37.0144 55.3735 36.9119 54.9862C36.4263 53.1517 38.4567 58.4567 39.0994 60.2422C39.1828 60.4738 39.4958 61.1583 39.4958 60.5358C39.4958 60.0954 39.4958 58.774 39.4958 59.2145C39.4958 60.5848 39.4958 61.955 39.4958 63.3253" stroke="white" stroke-width="2" stroke-linecap="round"/>
<path d="M46.3667 74.6887C46.3667 72.4146 46.4651 70.6311 49.2736 70.4751C50.8714 70.3863 53.3755 69.9365 54.6911 70.9889C56.1789 72.1792 50.023 75.9588 49.3324 76.2743C48.2037 76.7898 47.034 77.3098 45.985 77.9773C45.1649 78.4992 45.3443 77.8785 45.5739 77.2139C46.4049 74.8083 48.6999 72.1804 51.3878 71.7964C52.3952 71.6525 51.3755 71.2675 50.8592 71.2532C49.8557 71.2253 49.2366 71.6043 48.8919 72.5892C48.4943 73.7252 49.5165 74.5772 50.595 74.6446C51.1727 74.6807 53.3429 73.5274 52.0631 73.1618C51.1053 72.8881 49.5262 73.0013 48.9213 73.8812C48.7196 74.1746 48.5225 74.9321 49.0094 74.6887" stroke="white" stroke-width="2" stroke-linecap="round"/>
<path d="M50.3317 65.4391C52.2858 65.4391 55.1608 66.0049 56.9384 65.1161C58.2828 64.4439 58.2169 62.1278 57.9807 60.8292C57.7778 59.7128 54.8515 60.2616 54.2957 60.5355C52.3555 61.492 49.6614 63.5987 48.6433 65.5566C48.4272 65.9723 47.3327 68.1591 48.2763 66.8486C49.8085 64.7205 52.6083 62.8924 55.294 62.7965C56.3211 62.7598 53.2325 62.7965 52.7835 62.7965C52.1571 62.7965 54.0363 62.7965 54.6627 62.7965C54.8911 62.7965 56.2936 62.7965 55.294 62.7965C54.5631 62.7965 52.2553 62.7965 54.3544 62.7965C55.1374 62.7965 55.9204 62.7965 56.7035 62.7965C57.2761 62.7965 55.5447 62.6869 54.9857 62.8112C54.5512 62.9077 56.5928 63.8988 57.1439 62.7965C57.4852 62.1139 54.6883 61.5391 54.3104 62.5469C53.7628 64.007 55.7937 64.8004 56.4832 63.5746C57.0609 62.5477 53.2494 61.618 52.5633 62.2679C51.2434 63.5183 55.235 63.5763 56.1015 62.7965C57.9261 61.1544 52.6362 61.4751 51.9173 61.4751" stroke="white" stroke-width="2" stroke-linecap="round"/>
<path d="M46.895 52.49C46.895 51.2078 46.895 49.9256 46.895 48.6434C46.895 47.6928 46.5616 45.9851 47.0565 45.1052C47.4065 44.483 50.8275 42.9692 51.1233 43.9307C52.0424 46.9177 50.1141 50.0637 48.0842 52.0936C47.2822 52.8956 47.8793 50.9009 47.9521 50.5814C48.2992 49.0577 49.0212 47.5886 49.2587 46.0448C49.3607 45.3823 48.2473 50.1034 47.4823 49.9941C47.1006 49.9396 47.7836 49.2839 47.9521 48.9371C48.3996 48.0156 48.808 47.0387 49.1119 46.0595C49.6935 44.1855 48.5061 46.3185 48.2751 46.9404C48.1638 47.24 47.727 49.2664 47.8346 49.1279C48.444 48.3445 48.5077 47.0942 48.4806 46.1476C48.4398 44.7178 46.2129 46.7314 47.1593 47.2047" stroke="white" stroke-width="2" stroke-linecap="round"/>
<path d="M57.4662 55.1327C60.5836 55.1327 64.1525 55.6193 67.2294 54.9858C68.55 54.714 70.3356 53.4744 70.4153 51.9615C70.5682 49.0555 60.7337 50.4109 59.1105 51.4329C58.578 51.7682 56.2149 53.2514 56.1449 53.8113C56.0887 54.2606 55.1172 54.2855 55.1172 54.7363C55.1172 54.8939 57.4571 54.3594 57.5837 54.3399C59.9946 53.9674 62.4006 53.5517 64.807 53.1507C66.1807 52.9217 68.9515 52.49 65.864 52.49C64.3251 52.49 59.7245 52.5696 61.254 52.7396C61.8053 52.8008 67.1928 52.532 66.5394 51.9027C65.7207 51.1144 60.2891 50.361 59.6244 51.5797C58.3802 53.8608 66.1176 53.8996 67.1266 53.4296C68.0459 53.0014 68.4975 52.2177 67.2734 51.9615C65.5635 51.6036 63.6409 51.5918 61.9 51.7119C60.6787 51.7961 61.927 52.4768 62.4139 52.6074C63.8428 52.9908 65.3881 53.0742 66.8624 53.0185C68.1372 52.9704 66.8857 52.2709 66.2604 52.2404C64.9192 52.175 63.5659 52.2257 62.223 52.2257" stroke="white" stroke-width="2" stroke-linecap="round"/>
<path d="M58.2588 40.8623C58.2588 37.7137 59.6937 34.2216 63.5294 35.1806C67.3997 36.1481 64.1601 38.9281 62.2815 40.598C61.186 41.5718 59.7242 43.2222 58.3175 43.7692C58.1665 43.8279 58.4312 43.4623 58.523 43.3288C59.5128 41.8891 60.5557 40.4845 61.5621 39.0565C62.0399 38.3784 63.662 36.6338 62.8981 36.957C62.407 37.1648 61.8382 37.6772 61.4153 37.9847C60.5252 38.632 59.6882 39.3613 58.846 40.0695C58.7362 40.1618 57.9806 41.0069 58.5817 40.5393C58.9302 40.2683 62.6576 36.9996 62.1053 36.6928C60.4372 35.766 58.14 39.4947 57.7889 40.598C57.1571 42.5837 58.1298 44.3386 60.0793 42.3892C61.1996 41.2689 62.3718 38.1777 59.9471 37.882C57.6205 37.5982 55.4566 40.7465 55.9391 42.9177C56.4142 45.0555 60.0703 42.0768 60.5784 41.4496C61.5709 40.2245 62.2447 38.9226 63.0155 37.5736C63.0608 37.4944 66.2043 36.8983 64.0726 36.8983" stroke="white" stroke-width="2" stroke-linecap="round"/>
<path d="M64.8652 45.0907C65.0649 45.8894 71.3817 45.355 72.206 45.355C74.3424 45.355 76.7928 45.7173 78.6071 44.3566C79.274 43.8565 79.8847 43.0587 79.9284 42.1838C79.9973 40.8063 78.4769 40.5544 77.3445 40.3926C72.9552 39.7656 69.0959 42.6985 66.1278 45.5605C64.8363 46.8059 65.3788 45.5473 66.5096 44.8264C69.5104 42.9134 73.412 42.9766 76.8453 42.9766C77.3208 42.9766 78.2196 43.1462 78.6805 42.9619C79.3472 42.6952 77.4932 42.1521 76.8747 41.7874C76.615 41.6342 72.0725 39.8614 72.7051 41.1267C73.2167 42.1499 76.0019 41.7811 74.3348 41.6699C74.0603 41.6516 70.1133 42.0585 71.1049 42.8298C71.4215 43.076 71.9658 43.0772 72.3381 43.2261C73.0197 43.4988 70.87 43.2408 70.1359 43.2408C69.1499 43.2408 68.03 43.0926 67.0528 43.2555C67.0218 43.2607 68.9699 43.8317 69.3578 43.9015C70.1552 44.045 74.5608 44.2156 74.3788 44.0336" stroke="white" stroke-width="2" stroke-linecap="round"/>
<defs>
<linearGradient id="paint0_linear_484_73" x1="52.5" y1="21.707" x2="52.5" y2="41.2699" gradientUnits="userSpaceOnUse">
<stop stop-color="#838383"/>
<stop offset="0.0001" stop-color="#B0B0B0"/>
<stop offset="1" stop-color="white"/>
</linearGradient>
<linearGradient id="paint1_linear_484_73" x1="20.1923" y1="13.6294" x2="20.1923" y2="33.1923" gradientUnits="userSpaceOnUse">
<stop stop-color="#838383"/>
<stop offset="0.0001" stop-color="#B0B0B0"/>
<stop offset="1" stop-color="white"/>
</linearGradient>
<linearGradient id="paint2_linear_484_73" x1="55.2764" y1="6.5625" x2="55.2764" y2="44.4231" gradientUnits="userSpaceOnUse">
<stop offset="0.035" stop-color="#9BFFA7"/>
<stop offset="1" stop-color="white"/>
</linearGradient>
<linearGradient id="paint3_linear_484_73" x1="52.5" y1="27.2598" x2="52.5" y2="100.962" gradientUnits="userSpaceOnUse">
<stop stop-color="#FAF7C3"/>
<stop offset="0.0001" stop-color="#48A85A"/>
<stop offset="0.755" stop-color="white"/>
</linearGradient>
</defs>
</svg>
