<svg width="105" height="101" viewBox="0 0 105 101" fill="none" xmlns="http://www.w3.org/2000/svg">
<rect y="21.707" width="105" height="73.7019" rx="20" fill="url(#paint0_linear_484_72)"/>
<rect y="13.6294" width="40.3846" height="73.7019" rx="20" fill="url(#paint1_linear_484_72)"/>
<ellipse cx="55.2764" cy="25.4928" rx="22.4639" ry="18.9303" fill="url(#paint2_linear_484_72)"/>
<circle cx="55.7817" cy="6.8149" r="6.8149" fill="#F4473D"/>
<rect y="27.2598" width="105" height="73.7019" rx="20" fill="url(#paint3_linear_484_72)"/>
<path d="M10.5 70.5002C3.7 76.5002 1.33333 60.3333 0.5 51.5C0.5 33.1001 12.5 27.8335 19 27.5002C39.1667 27.3335 81.3 27.1002 88.5 27.5002C95.7 27.9002 102.5 37 104.5 42.5V63.5L103.5 58.5002C103 54.6668 95.7 51.9 92.5 63.5C89.3 75.1 86.8333 72.3335 85 70.5002C83.1667 65.6668 83 54.5002 83 48.5002C83 42.5002 78 43 76.5 43.5L76.4419 43.5484C74.4422 45.2141 71.4807 47.6811 69.5 56.0002C67.5 64.4002 57.3333 66.5002 52.5 66.5002C49 66.3335 40.7 64.5002 35.5 58.5002C30.3 52.5002 25.3333 54.3335 23.5 56.0002C22 58.3335 17.3 64.5002 10.5 70.5002Z" fill="#8B4418" stroke="#8B4418"/>
<path d="M44.4008 13.1294C43.8704 13.1824 43.366 13.9272 43.0322 14.2664C41.9223 15.3944 41.1095 16.622 40.8108 18.1987C40.6011 19.305 39.8967 23.0859 42.1584 22.4047C43.14 22.109 44.0147 21.432 44.843 20.857C46.0599 20.0123 47.2545 19.136 48.4542 18.2671C49.9386 17.192 51.5331 15.8662 53.3392 15.3666C53.5644 15.3043 54.2728 15.0366 54.4446 15.3298C54.9039 16.1132 54.2961 17.6411 54.0604 18.3829C53.7293 19.4247 53.3976 20.4194 53.1707 21.4887C53.0464 22.0748 53.4406 22.0772 53.9604 21.8782C54.7018 21.5944 55.3465 21.0825 55.9607 20.5938C57.1183 19.6728 58.2199 18.7141 59.4771 17.9197C60.3989 17.3372 64.5796 14.3298 65.0675 16.9195C65.3063 18.1872 64.6487 19.5932 64.4463 20.836C64.3939 21.1582 64.2613 21.7297 64.6516 21.8888C65.5745 22.2648 66.5431 21.8246 67.331 21.3518C68.4038 20.7082 69.4417 19.9644 70.3526 19.1041C70.695 18.7808 70.8504 18.4176 71.1212 18.0565" stroke="#8B4418" stroke-width="2" stroke-linecap="round"/>
<defs>
<linearGradient id="paint0_linear_484_72" x1="52.5" y1="21.707" x2="52.5" y2="41.2699" gradientUnits="userSpaceOnUse">
<stop stop-color="#E3B622"/>
<stop offset="0.0001" stop-color="#EC9455"/>
<stop offset="1" stop-color="white"/>
</linearGradient>
<linearGradient id="paint1_linear_484_72" x1="20.1923" y1="13.6294" x2="20.1923" y2="33.1923" gradientUnits="userSpaceOnUse">
<stop stop-color="#E3B622"/>
<stop offset="0.0001" stop-color="#EC9455"/>
<stop offset="1" stop-color="white"/>
</linearGradient>
<linearGradient id="paint2_linear_484_72" x1="55.2764" y1="6.5625" x2="55.2764" y2="44.4231" gradientUnits="userSpaceOnUse">
<stop stop-color="#FFFEEC"/>
<stop offset="1" stop-color="#F7FF9B"/>
</linearGradient>
<linearGradient id="paint3_linear_484_72" x1="52.5" y1="27.2598" x2="52.5" y2="100.962" gradientUnits="userSpaceOnUse">
<stop stop-color="white"/>
<stop offset="1" stop-color="#FFFA91"/>
</linearGradient>
</defs>
</svg>
