<svg width="105" height="101" viewBox="0 0 105 101" fill="none" xmlns="http://www.w3.org/2000/svg">
<rect y="21.707" width="105" height="73.7019" rx="20" fill="url(#paint0_linear_484_22)"/>
<rect y="13.6294" width="40.3846" height="73.7019" rx="20" fill="url(#paint1_linear_484_22)"/>
<ellipse cx="55.2764" cy="25.4928" rx="22.4639" ry="18.9303" fill="url(#paint2_linear_484_22)"/>
<circle cx="55.7817" cy="6.8149" r="6.8149" fill="#F4473D"/>
<rect y="27.2598" width="105" height="73.7019" rx="20" fill="url(#paint3_linear_484_22)"/>
<circle cx="46.4417" cy="70.6727" r="4.54327" fill="#517EF7"/>
<circle cx="60.5765" cy="52.5003" r="4.54327" fill="#517EF7"/>
<circle cx="31.2972" cy="85.8172" r="4.54327" fill="#517EF7"/>
<circle cx="60.5765" cy="85.8172" r="4.54327" fill="#517EF7"/>
<circle cx="31.2972" cy="52.5003" r="4.54327" fill="#517EF7"/>
<circle cx="14.639" cy="70.6727" r="4.54327" fill="#517EF7"/>
<circle cx="95.9144" cy="55.0237" r="4.54327" fill="#517EF7"/>
<circle cx="95.9144" cy="88.3411" r="4.54327" fill="#517EF7"/>
<circle cx="82.2835" cy="73.1966" r="4.54327" fill="#517EF7"/>
<defs>
<linearGradient id="paint0_linear_484_22" x1="52.5" y1="21.707" x2="52.5" y2="41.2699" gradientUnits="userSpaceOnUse">
<stop stop-color="#838383"/>
<stop offset="0.0001" stop-color="#B0B0B0"/>
<stop offset="1" stop-color="white"/>
</linearGradient>
<linearGradient id="paint1_linear_484_22" x1="20.1923" y1="13.6294" x2="20.1923" y2="33.1923" gradientUnits="userSpaceOnUse">
<stop stop-color="#838383"/>
<stop offset="0.0001" stop-color="#B0B0B0"/>
<stop offset="1" stop-color="white"/>
</linearGradient>
<linearGradient id="paint2_linear_484_22" x1="55.2764" y1="6.5625" x2="55.2764" y2="44.4231" gradientUnits="userSpaceOnUse">
<stop stop-color="#FFFEEC"/>
<stop offset="1" stop-color="#9BFFA7"/>
</linearGradient>
<linearGradient id="paint3_linear_484_22" x1="52.5" y1="27.2598" x2="52.5" y2="100.962" gradientUnits="userSpaceOnUse">
<stop stop-color="white"/>
<stop offset="1" stop-color="#91E4FF"/>
</linearGradient>
</defs>
</svg>
